<svg width="106" height="42" viewBox="0 0 106 42" fill="none" xmlns="http://www.w3.org/2000/svg">
<g clip-path="url(#clip0_6_67)">
<path d="M-0.0898437 23.1533C0.854833 24.2539 2.0172 25.0602 3.32902 25.6623C3.79121 25.8747 4.26883 26.0432 4.83336 26.1867C2.11061 23.471 1.69554 20.1743 2.04969 16.5996C2.26332 16.7341 2.1691 16.9116 2.21783 17.0405C2.27225 17.1839 2.29256 17.3411 2.32424 17.4927C2.75637 19.5381 3.46711 21.4653 4.74807 23.1469C5.05755 23.5529 5.4117 23.9232 5.8154 24.2401C5.82758 24.2498 5.8682 24.2239 5.895 24.215C5.97298 24.2069 6.02009 24.2579 6.06071 24.3106C6.7812 25.2409 7.30268 26.2402 7.25638 27.4663C7.22876 28.2021 7.25475 28.9404 7.24988 29.6779C7.24663 30.1147 7.15728 30.1666 6.78526 29.9486C5.77722 29.3594 4.86341 28.6406 3.98616 27.9355C4.44672 28.6171 4.93408 29.327 5.48805 29.9899C5.96161 30.5564 6.43842 31.1188 7.01594 31.5848C7.15322 31.6958 7.24257 31.8295 7.24663 32.0118C7.27587 33.2631 7.90051 34.2372 8.70548 35.1246C9.0442 35.4982 9.42922 35.8224 9.83373 36.1246C9.93445 36.2 10.0807 36.2543 10.0587 36.4261C9.45115 36.187 8.93698 35.7948 8.4155 35.4188C7.22795 34.5646 6.12407 33.6108 5.12578 32.5427C3.85294 31.1804 2.75393 29.69 1.85799 28.0514C1.09202 26.651 0.482811 25.1883 0.0425573 23.655C0.0125031 23.5512 0.00113099 23.4345 -0.0890316 23.3551C-0.0898439 23.2871 -0.0898437 23.2198 -0.0898437 23.1533Z" fill="#E0E6EE"/>
<path d="M10.0585 36.425C9.42578 35.9128 8.77921 35.4136 8.27885 34.7613C7.64446 33.9338 7.14573 33.0505 7.16928 31.9637C7.17334 31.7798 7.03688 31.7206 6.93291 31.6299C5.64058 30.5034 4.66829 29.1208 3.76097 27.6816C4.84861 28.5203 5.91838 29.3794 7.17091 30.0698C7.1376 28.8477 7.25132 27.6678 7.08724 26.496C6.96296 25.6037 6.39518 24.9222 5.89482 24.2139C4.62117 22.1879 3.8422 20.0079 3.78697 17.5921C3.7496 15.9688 3.98597 14.3958 4.57487 12.8828C4.65123 12.6867 4.55944 12.5935 4.47415 12.4687C3.72848 11.3763 3.47668 10.2198 4.01359 8.96127C4.02171 8.94263 4.03796 8.92723 4.07776 8.87294C4.30438 9.89161 5.00294 10.377 5.94681 10.6356C5.483 8.44667 5.21495 6.33314 7.13273 4.63777C6.72415 5.73101 6.95728 6.60867 7.95963 7.27401C7.86865 5.61269 8.30647 4.69207 9.50051 4.04456C9.12687 5.68238 9.49401 7.06007 10.8984 8.16221C10.2933 6.23346 10.3047 4.47488 11.7919 2.91648C12.1128 4.31037 12.6083 5.54623 13.8909 6.33638C13.9274 5.70345 13.9339 5.11267 14.0915 4.53971C14.1841 4.2034 14.3157 3.88572 14.5602 3.62801C14.6901 3.49024 14.7632 3.46755 14.8388 3.69852C15.2677 5.01947 15.9354 6.20671 16.8995 7.21647C17.2699 7.60385 17.6761 7.94989 18.174 8.24812C18.1017 7.5536 18.1098 6.89555 18.1829 6.23427C18.4307 3.99674 20.0227 2.1547 22.1996 1.59228C22.4287 1.53312 22.4766 1.67008 22.5416 1.80542C22.8365 2.42213 22.9055 3.08585 22.9307 3.75687C22.9412 4.04132 22.9323 4.32577 22.9323 4.64669C23.4408 4.03402 23.7779 3.3622 23.9412 2.54774C24.8436 3.28845 25.4853 4.16612 25.8476 5.24639C26.2082 6.32179 26.1847 7.4134 25.9678 8.55769C27.702 7.76431 29.2437 6.81533 30.1697 5.11834C30.445 4.61346 30.6164 4.07049 30.6278 3.49348C30.6335 3.20984 30.7131 3.19445 30.9275 3.32816C32.1541 4.09399 32.8088 5.19695 32.8973 6.63542C32.9046 6.75698 32.8981 6.87935 32.8981 7.04386C34.1198 6.59814 35.0953 5.90443 35.7573 4.74556C36.6354 6.30558 37.1358 7.86561 36.3219 9.63958C37.3226 9.2749 38.0203 8.66628 38.3867 7.64437C38.5922 8.14844 38.6864 8.63468 38.7433 9.13227C38.8838 10.356 38.5377 11.5173 38.2981 12.6932C38.2851 12.758 38.2803 12.8253 38.2721 12.8909C37.9229 13.0684 37.5939 12.9266 37.2714 12.8107C36.6914 12.6024 36.2756 12.1802 35.9019 11.7134C35.4747 11.1793 35.1798 10.5578 34.7826 10.0034C34.7054 9.89567 34.6437 9.77573 34.5414 9.68658C34.4293 9.73115 34.4447 9.83732 34.4122 9.91349C34.2757 10.236 34.1133 10.5391 33.8379 10.7677C33.7218 10.8641 33.5959 11.04 33.4423 10.9249C33.3221 10.8357 33.4513 10.6777 33.5025 10.5594C33.7031 10.091 33.7575 9.61689 33.5983 9.12335C33.5065 8.84133 33.3278 8.67034 33.0362 8.61118C32.2556 8.45396 31.5278 8.5893 30.8374 8.98072C30.2493 9.3138 29.7059 9.71089 29.2201 10.172C28.035 11.2952 26.884 12.4517 25.9759 13.8221C25.8086 14.0749 25.6656 14.3399 25.5706 14.6276C25.5446 14.7062 25.4658 14.8043 25.5543 14.8732C25.6323 14.9347 25.7241 14.8602 25.8037 14.8262C26.2017 14.6568 26.5169 14.3699 26.841 14.0952C26.9417 14.0101 27.0481 13.8083 27.1854 13.9388C27.304 14.0514 27.1505 14.2054 27.0635 14.3156C26.6883 14.7921 26.2813 15.233 25.7176 15.5004C25.4699 15.6179 25.4682 15.7524 25.7005 15.9008C25.928 16.0458 26.1863 16.0628 26.4462 16.0409C26.9393 15.9988 27.3698 15.7873 27.78 15.5272C28.6426 14.9793 29.3923 14.2889 30.1786 13.6446C30.3256 13.5238 30.4767 13.4088 30.6237 13.288C31.3191 12.7151 32.0826 12.6664 32.89 13.0052C33.5821 13.2953 34.2067 13.72 34.8979 14.0133C35.0441 14.0757 35.1059 14.1997 35.1294 14.3561C35.27 15.3027 35.1538 16.2484 35.1286 17.195C35.1238 17.3716 35.0336 17.4859 34.8671 17.5459C34.7615 17.584 34.6567 17.6212 34.5495 17.6553C33.3717 18.0305 32.6715 18.7842 32.6317 20.0614C32.6349 20.1813 32.6171 20.3037 32.6358 20.3653C32.6154 20.3409 32.6366 20.251 32.6317 20.1651C32.6707 19.584 33.0931 19.2558 33.4976 18.9527C34.1539 18.4616 34.9117 18.1958 35.7411 18.1674C36.1651 18.1529 36.2252 18.0986 36.2325 17.6796C36.2455 16.9243 36.0497 16.1998 35.8987 15.4688C35.8442 15.207 35.7679 14.9501 35.7053 14.6892C35.5754 14.1503 35.6769 14.0368 36.2488 14.0741C36.3462 14.147 36.373 14.2573 36.3942 14.3667C36.5818 15.3197 36.7256 16.2784 36.7483 17.2509C36.7564 17.5985 36.6923 17.9397 36.5818 18.2704C36.4705 18.6043 36.2447 18.8133 35.893 18.8838C34.2814 19.2072 33.2247 20.5784 33.1905 22.2989C33.1857 22.5558 33.1832 22.8127 33.1922 23.0688C33.2011 23.3516 33.2628 23.3824 33.5138 23.2341C33.6974 23.1263 33.8615 22.991 34.028 22.8597C34.0629 22.8321 34.093 22.7981 34.1295 22.7722C34.2676 22.6749 34.4211 22.4488 34.5698 22.5866C34.7103 22.7162 34.521 22.9099 34.4309 23.0558C34.2018 23.4278 33.9378 23.7746 33.6145 24.0704C33.444 24.2268 33.3611 24.4075 33.431 24.6385C33.4765 24.7965 33.4407 25.0405 33.5869 25.0907C33.7543 25.1491 33.8907 24.9432 34.0182 24.8273C34.8297 24.0947 35.4917 23.2438 36.0351 22.2964C36.1261 22.1376 36.1562 21.9026 36.4072 21.875C36.4989 22.0217 36.4218 22.1571 36.3698 22.2867C35.8491 23.589 35.127 24.769 34.1571 25.7852C33.9378 26.0146 33.8647 26.2123 34.0288 26.4838C34.2229 26.9935 34.1775 27.0203 34.5958 26.6062C35.7874 25.4278 36.7702 24.0931 37.5679 22.6239C37.8498 22.1044 38.0577 21.5493 38.2348 20.9836C38.5085 19.9195 38.6466 18.8401 38.5784 17.7428C38.4906 16.3416 38.342 14.9485 37.8798 13.6089C37.8433 13.5036 37.7978 13.4015 37.8156 13.2856C37.9058 13.0895 38.0098 12.9112 38.2754 12.9614C38.7229 14.1543 39.047 15.3764 39.1697 16.6488C39.3614 18.644 39.1738 20.5833 38.3396 22.431C38.3038 22.5104 38.277 22.5939 38.2461 22.6757C38.2933 22.8224 38.2063 22.935 38.143 23.0501C37.7937 23.6871 37.4054 24.2998 36.9644 24.8776C36.7475 25.162 36.5485 25.4586 36.3454 25.7528C35.8832 26.4222 35.5811 27.1329 35.6664 27.9741C35.7029 28.3372 35.6704 28.7075 35.6745 29.1119C35.884 29.052 36.0351 28.9393 36.1854 28.838C37.1317 28.1994 38.0488 27.5235 38.8164 26.6694C38.8537 26.628 38.8878 26.5835 38.9325 26.5494C38.9772 26.5162 39.0275 26.4789 39.0812 26.5235C39.1169 26.5535 39.1145 26.6037 39.1055 26.6491C39.0925 26.7156 39.0592 26.7739 39.0276 26.8331C38.221 28.3575 37.178 29.7011 35.9149 30.8738C35.7435 31.0326 35.6558 31.1947 35.6704 31.4256C35.6818 31.6031 35.6631 31.783 35.6745 31.9613C35.759 33.3268 35.1376 34.3625 34.1466 35.2256C34.071 35.2913 33.9971 35.3601 33.9167 35.4209C31.6204 37.2443 29.182 38.8441 26.5063 40.0645C26.0912 40.2542 25.6551 40.3952 25.2343 40.5727C24.4456 40.9041 23.6154 40.8547 22.7893 40.8466C22.3142 40.8417 21.8219 40.9333 21.3979 40.6156C21.3337 40.567 21.2753 40.6034 21.2095 40.6221C19.7051 41.0443 18.226 40.913 16.7679 40.4041C14.7957 39.7152 13.0721 38.5831 11.3907 37.3789C10.9464 37.062 10.5029 36.7435 10.0585 36.425Z" fill="#00030B"/>
<path d="M36.2415 14.1131C35.6803 14.229 35.6916 14.2265 35.8224 14.7711C36.0563 15.7428 36.3374 16.708 36.3293 17.7218C36.3252 18.2153 36.2814 18.2445 35.7989 18.2624C34.7689 18.3013 33.86 18.6432 33.124 19.3823C32.9015 19.606 32.7301 19.8653 32.683 20.1887C32.5522 20.2373 32.6245 20.0906 32.5676 20.0687C32.5473 18.9018 33.1573 18.0743 34.3709 17.6229C35.0264 17.379 35.0239 17.379 35.0597 16.6821C35.0987 15.913 35.1109 15.1447 35.0483 14.3765C35.0402 14.2727 35.0832 14.1552 34.9289 14.1009C34.3156 13.8862 33.7755 13.5239 33.2004 13.2314C32.2322 12.7386 31.3387 12.733 30.4825 13.4996C29.8099 14.1017 29.0984 14.6634 28.3803 15.2128C27.7963 15.6593 27.1863 16.0807 26.413 16.1415C26.0922 16.1666 25.7851 16.1213 25.5349 15.9041C25.3059 15.7055 25.3302 15.5742 25.6015 15.4567C26.3172 15.148 26.798 14.5977 27.1489 13.9048C27.0466 14.0037 26.9467 14.105 26.8419 14.2006C26.7347 14.2987 26.625 14.3935 26.5121 14.4843C26.2335 14.7104 25.9313 14.8967 25.5853 15.0045C25.5228 15.024 25.4561 15.071 25.3985 15.0207C25.3392 14.9689 25.379 14.8951 25.3977 14.8343C25.4968 14.515 25.6202 14.2022 25.8103 13.9267C27.1051 12.0466 28.6305 10.3844 30.515 9.07644C31.1007 8.67043 31.7553 8.43136 32.4905 8.44594C33.6528 8.46864 33.8705 9.02538 33.7406 10.1048C33.7064 10.386 33.57 10.6462 33.4043 10.9558C34.063 10.6186 34.3116 10.0813 34.4537 9.4395C34.7941 9.79526 35.0158 10.1818 35.2498 10.5587C35.5966 11.117 35.9191 11.6948 36.4081 12.1487C36.932 12.6349 37.5347 12.9364 38.273 12.8926C38.2739 12.9161 38.2739 12.9404 38.2747 12.9639C38.0911 12.9793 38.0221 13.1633 37.8775 13.2354C37.7865 13.4348 37.5948 13.5158 37.425 13.6236C37.2277 13.7565 37.027 13.8846 36.8101 13.9842C36.6233 14.0418 36.4536 14.1722 36.2415 14.1131Z" fill="#E0E6EE"/>
<path d="M33.918 35.4227C34.1982 35.105 34.5069 34.8149 34.7676 34.4786C35.3801 33.6868 35.7001 32.8132 35.5758 31.8026C35.5206 31.3544 35.6075 31.01 35.9893 30.6688C37.1988 29.5902 38.1386 28.2871 38.9151 26.8672C38.9671 26.7716 39.0134 26.6736 39.0491 26.5642C38.0549 27.672 36.8698 28.5326 35.5523 29.3349C35.6319 28.3681 35.4101 27.4451 35.7862 26.5666C35.9941 26.082 36.2963 25.6533 36.605 25.231C37.2036 24.4133 37.7909 23.5884 38.2466 22.6791C38.4326 22.6143 38.5025 22.4352 38.5991 22.295C39.837 20.5153 40.5283 18.5209 40.8954 16.4017C40.9141 16.2923 40.9368 16.1878 41.0636 16.0176C41.2252 17.6984 41.2455 19.2924 40.897 20.8784C40.547 22.47 39.8898 23.9101 38.7949 25.1468C40.4267 24.6232 41.7556 23.6621 42.8871 22.3914C42.7141 23.1135 42.4485 23.7942 42.1813 24.4733C41.2423 26.8535 39.9442 29.0294 38.3757 31.0449C37.5951 32.0482 36.7536 33.0036 35.8203 33.8675C35.2663 34.3805 34.7221 34.9105 34.0926 35.3376C34.0406 35.374 33.9773 35.3951 33.918 35.4227Z" fill="#E0E6EE"/>
<path d="M24.0972 10.2879C25.0768 9.98399 26.0832 9.76518 27.0222 9.33567C28.6378 8.59658 29.9001 7.42717 31.0088 6.07704C31.2298 5.80798 31.3971 5.87849 31.5823 6.05921C31.9275 6.39715 32.1095 6.83152 32.2354 7.28535C32.3134 7.56818 32.4636 7.66057 32.7569 7.6792C33.6723 7.73593 34.513 7.54468 35.2708 7.02602C35.4252 6.92067 35.5186 6.95308 35.6412 7.07302C35.9759 7.3988 36.0921 7.81292 36.1205 8.25216C36.1505 8.71976 36.14 9.18979 36.0108 9.64605C35.9483 9.86729 36.0206 9.95076 36.2521 9.9459C36.9612 9.93131 37.5923 9.73114 38.1049 9.21978C38.1877 9.13712 38.3023 8.95073 38.3689 9.22383C38.5378 9.91186 38.4444 11.4046 37.6939 12.0286C37.6768 12.0424 37.6557 12.0513 37.5883 12.0902C37.8344 11.591 38.0805 11.134 38.0651 10.5318C37.8181 10.8641 37.6524 11.1842 37.3438 11.3771C37.2585 11.4306 37.1756 11.4865 37.0879 11.5343C36.8288 11.6753 36.6387 11.6437 36.4966 11.3503C36.2781 10.8989 36.0409 10.4556 35.7931 10.0196C35.2034 8.98152 34.4025 8.19138 33.1947 7.91422C32.3694 7.72459 31.5782 7.88586 30.8139 8.20921C29.7392 8.66384 28.8319 9.36808 27.9717 10.138C27.6387 10.4362 27.313 10.7425 26.9889 11.0505C26.7436 11.2831 26.4966 11.3933 26.1945 11.138C26.0255 10.9954 25.833 11.0019 25.6259 11.0756C25.0638 11.2766 24.6317 11.6688 24.1857 12.0384C23.8056 12.3536 23.4084 12.6413 22.9576 12.8463C22.272 13.1583 21.7351 13.04 21.2575 12.4581C20.7384 11.826 20.1918 11.2223 19.5346 10.7296C19.0465 10.3633 18.5242 10.0723 17.8857 10.0699C17.4966 10.0683 17.166 10.2012 16.8793 10.4589C16.7461 10.578 16.6137 10.698 16.4748 10.8106C16.0167 11.1818 15.6966 11.1891 15.1995 10.8689C14.1127 10.1688 12.9316 9.75546 11.6263 9.8292C10.4875 9.89404 9.46891 10.3584 8.47549 10.8819C7.75501 11.262 7.04508 11.6656 6.26042 11.9111C4.95022 12.3204 3.99336 11.6186 4.00798 10.253C4.00879 10.1979 4.00798 10.1428 4.00798 10.0026C4.0957 10.1915 4.14688 10.309 4.20374 10.4232C4.63018 11.2758 5.51719 11.591 6.38064 11.1826C7.10681 10.839 7.67946 10.2765 8.29273 9.77815C9.19111 9.04797 10.161 8.55606 11.3574 8.67438C11.5857 8.69707 11.6117 8.61522 11.5678 8.40452C11.4874 8.02201 11.4549 7.63139 11.7603 7.25617C12.3866 8.35832 13.3678 8.95316 14.5334 9.37781C14.1403 7.93367 14.1354 7.79347 14.4571 7.34046C14.6691 7.5698 14.8527 7.82021 15.0988 8.0139C15.9517 8.68735 16.9548 8.93614 18.0043 8.99206C19.1447 9.05284 20.0585 9.52044 20.8091 10.3422C20.8156 9.83893 20.6085 9.31298 20.195 8.76595C19.8823 8.35184 19.5086 8.00012 19.0911 7.69703C18.9685 7.60789 18.9116 7.51793 18.9189 7.3672C18.9693 6.29585 19.3657 5.37928 20.1252 4.61669C20.2697 4.47163 20.403 4.51539 20.5508 4.5786C21.7148 5.07619 22.3703 5.97412 22.618 7.19377C22.6814 7.50659 22.6984 7.82346 22.7269 8.14519C23.2102 7.33397 23.3962 6.47008 23.2427 5.54298C23.8405 6.09082 24.1118 7.72864 23.752 9.54313C23.756 9.75221 23.6886 9.92321 23.5237 10.0642C23.263 10.2871 23.1249 10.5813 23.0656 10.8868C23.2792 10.4921 23.6415 10.3154 24.0972 10.2879Z" fill="#637298"/>
<path d="M31.1044 36.1769C31.6608 35.5132 32.1271 34.8673 32.4877 34.1533C33.4422 32.2634 33.7143 30.3282 32.8257 28.3346C32.3594 27.2892 31.6576 26.5209 30.4173 26.4399C29.5457 26.3832 28.7066 26.5242 27.8838 26.8046C27.3647 26.9812 26.8904 27.2519 26.3941 27.4764C25.4746 27.8913 24.5144 28.1012 23.5015 28.0518C23.054 28.0299 22.7071 27.7009 22.6844 27.2511C22.6438 26.461 22.6105 25.67 22.5642 24.8799C22.5544 24.7121 22.5829 24.6424 22.7672 24.5954C23.3561 24.4463 23.8216 24.0751 24.2667 23.6829C24.4844 23.4908 24.6802 23.2753 24.8865 23.0702C25.1196 22.8393 25.2504 22.5329 25.7394 22.7291C26.2121 22.9187 26.7701 22.2663 26.7807 21.6115C26.7921 20.917 26.4493 20.3562 26.07 19.8116C26.0115 19.7273 25.8596 19.6584 25.9221 19.5434C25.9871 19.4242 26.1422 19.4672 26.2633 19.4639C26.4566 19.4591 26.6369 19.519 26.8156 19.5823C28.2696 20.0977 29.4401 20.9932 30.3596 22.2217C30.6869 22.6594 30.9972 23.1099 31.3189 23.5516C31.3822 23.6391 31.4115 23.7591 31.5317 23.7988C31.7348 23.1804 32.0572 22.6513 32.6364 22.2696C32.1815 23.9406 32.6713 25.465 33.2602 26.9626C33.8637 28.4999 34.3324 30.0672 34.5704 31.7043C34.6963 32.569 34.4226 33.2773 33.8483 33.9053C33.0758 34.7522 32.1953 35.4718 31.2596 36.1283C31.2352 36.1453 31.2027 36.1469 31.1044 36.1769Z" fill="#E0E6EE"/>
<path d="M6.14602 16.4453C6.29954 17.0636 6.51398 17.6593 6.82671 18.2169C6.89413 18.3368 6.90956 18.4648 6.89819 18.6026C6.79828 19.8377 7.11588 20.8142 7.97283 21.8345C7.84286 21.4836 7.73564 21.1975 7.63005 20.9098C7.51714 20.6035 7.48546 20.2801 7.45378 19.96C7.42129 19.6375 7.45378 19.3149 7.52526 18.9721C7.81768 19.1488 8.11579 19.2517 8.13122 19.7007C8.14584 20.1262 8.41958 20.4763 8.79323 20.8304C8.6259 20.3717 8.59259 19.9779 8.66083 19.5548C10.4795 20.1124 12.0106 19.3636 13.5134 18.507C14.0365 18.2087 14.5295 17.8603 15.0664 17.5807C15.6635 17.2695 16.293 17.1933 16.9517 17.2476C17.1442 17.2638 17.1987 17.3076 17.1361 17.515C16.9891 18.0045 16.8851 18.5037 16.8218 19.0143C16.7397 19.674 16.7755 20.2996 17.1718 20.9017C16.4083 21.0022 15.6797 21.1392 14.9633 21.3377C14.0779 21.5833 13.2323 21.9163 12.4282 22.3653C11.0481 23.136 10.3114 24.3265 10.0523 25.8573C9.88005 26.8711 9.93935 27.8744 10.101 28.8834C9.77364 28.1824 9.5592 27.4457 9.38294 26.6977C9.22211 26.0129 9.1092 25.32 9.11732 24.6142C9.11895 24.4707 9.05559 24.3864 8.95324 24.3103C8.12878 23.6992 7.49358 22.9091 6.86894 22.1092C6.80721 22.0306 6.78528 21.9204 6.74467 21.8248C6.34584 21.3231 6.16145 20.7299 6.01281 20.1205C5.96813 19.9373 5.94214 19.7477 5.84304 19.58C5.71957 18.6002 5.774 17.6285 5.97382 16.6633C5.99412 16.5725 6.0193 16.4648 6.14602 16.4453Z" fill="#8FA0BD"/>
<path d="M17.7392 21.8912C17.6125 21.4219 17.7733 21.0824 18.0527 20.7825C18.3379 20.477 18.6823 20.2501 19.0559 20.0686C19.1867 20.0045 19.2565 19.9373 19.2744 19.7793C19.4482 18.2743 19.6529 16.7727 19.8389 15.2702C20.0055 13.9225 19.4166 12.7993 18.5166 11.8251C18.3508 11.6452 18.1981 11.4532 18.03 11.2546C18.7407 11.176 19.4003 11.3454 19.9494 11.8665C20.4351 12.3268 20.8218 12.8852 21.3571 13.2993C21.5431 13.4435 21.7332 13.5789 21.9435 13.6834C22.5308 13.9735 23.0027 13.8844 23.4519 13.403C24.0205 12.792 24.9652 12.1655 25.5923 11.9937C25.1772 12.5051 24.7784 12.9986 24.4453 13.5391C24.2472 13.8609 24.0514 14.1891 23.9604 14.5586C23.8946 14.8261 23.785 14.8796 23.5161 14.792C22.8305 14.5692 22.2392 14.7377 21.7795 15.3066C21.7388 15.3561 21.7112 15.416 21.6568 15.5036C21.7535 15.4711 21.8144 15.4533 21.8737 15.4314C22.4528 15.2215 22.824 15.3958 22.9516 15.9898C23.0897 16.6308 23.1782 17.2824 23.2903 17.9283C23.3439 18.2362 23.4398 18.5328 23.5705 18.8157C23.7817 19.2719 24.1066 19.5929 24.6102 19.7355C25.2211 19.9089 25.6378 20.3011 25.814 20.9235C25.8319 20.9876 25.8417 21.054 25.8481 21.1205C25.8522 21.1586 25.8441 21.1975 25.8368 21.2955C25.5639 20.7728 25.1277 20.5791 24.6427 20.4422C24.438 20.3846 24.3446 20.4073 24.291 20.635C24.1919 21.0605 24.0116 21.4576 23.7484 21.8093C23.1579 22.6003 22.3594 22.9293 21.3831 22.8393C20.9379 22.7988 20.6666 22.5087 20.4546 22.1505C20.2678 21.8344 20.1094 21.5005 19.9039 21.1975C19.6188 20.7777 19.3597 20.7226 18.8975 20.9381C18.4426 21.1496 18.112 21.5159 17.7392 21.8912Z" fill="#E0E6EE"/>
<path d="M29.6725 36.7967C28.9179 37.7586 27.9269 38.4094 26.8198 38.8851C24.8955 39.7117 22.8705 40.0488 20.7838 40.0253C20.294 40.0197 19.8042 39.9475 19.3396 39.7717C18.3697 39.4054 17.7304 38.74 17.6752 37.6833C17.6248 36.7108 18.1488 36.0138 18.9781 35.5487C19.7936 35.0916 20.6871 34.9976 21.6034 35.0438C21.7902 35.0535 21.9762 35.0794 22.1671 35.0989C20.878 35.8291 20.5929 36.6103 21.1989 37.8283C21.0851 37.1541 21.1867 36.5722 21.6619 36.1014C22.1078 35.6597 22.6731 35.4603 23.2742 35.3525C24.1645 35.1929 24.8842 35.4871 25.3943 36.2294C25.8556 36.9012 25.733 37.7416 25.1246 38.283C25.0361 38.3624 24.9426 38.4369 24.8338 38.5277C25.9734 38.5488 28.1844 38.1768 29.6725 36.7967Z" fill="#E0E6EE"/>
<path d="M36.245 14.112C36.431 14.0423 36.6162 13.9727 36.8022 13.9021C37.0776 14.0707 37.184 14.3641 37.314 14.6299C37.5504 15.1145 37.7055 15.6267 37.699 16.1275C37.6495 15.2977 37.7315 14.4046 37.3993 13.5602C37.5593 13.4516 37.7193 13.343 37.8793 13.2344C38.0467 13.8641 38.2717 14.4775 38.3805 15.1234C38.7054 17.0627 38.8833 18.9996 38.3496 20.9332C38.3358 20.9843 38.3025 21.0296 38.279 21.0783C37.9597 21.7971 37.6283 22.507 37.1905 23.1659C36.3969 24.3612 35.4555 25.4212 34.3516 26.3378C34.246 26.4253 34.1429 26.5469 33.9739 26.5104C33.766 26.2284 33.8041 26.0241 34.0681 25.7543C35.0794 24.7226 35.8202 23.5095 36.3303 22.1585C36.3652 22.0661 36.3782 21.9665 36.4018 21.87C36.3165 21.7501 36.3628 21.6374 36.4229 21.5272C36.5537 21.2865 36.6658 21.0369 36.773 20.7849C36.0899 22.332 35.0039 23.5532 33.679 24.58C33.5938 24.6457 33.5077 24.7275 33.3809 24.6991C33.2347 24.4333 33.3046 24.234 33.5255 24.0273C33.965 23.6164 34.3402 23.1513 34.5514 22.5581C34.2444 22.7955 33.9447 23.0419 33.6279 23.2655C33.4906 23.3628 33.3298 23.5516 33.1681 23.4608C33.0292 23.3822 33.1105 23.1529 33.1015 22.9908C33.043 21.9689 33.1746 20.9859 33.792 20.1309C34.3086 19.4153 35.0104 18.9607 35.8827 18.8002C36.2255 18.737 36.4189 18.5474 36.5139 18.2362C36.6585 17.7613 36.6837 17.2718 36.6447 16.7815C36.5707 15.8828 36.4481 14.9913 36.245 14.112Z" fill="#8FA0BD"/>
<path d="M17.5722 12.5685C18.1278 13.2088 18.6005 13.8093 18.7768 14.58C18.9116 15.1707 18.6022 15.6286 18.0003 15.7802C17.0101 16.0298 16.1036 15.8466 15.271 15.2623C14.5359 14.7469 13.9072 14.1083 13.233 13.5232C12.4825 12.8716 11.671 12.7209 10.7491 13.0556C10.4729 13.1561 10.1919 13.2096 9.89701 13.1318C9.46894 13.0191 9.261 12.7152 9.14809 12.2355C9.07417 12.7322 9.11154 13.1383 9.40396 13.4673C9.56154 13.6448 9.47625 13.682 9.33248 13.7647C7.97516 14.5475 6.7202 14.212 5.50909 13.4178C5.22155 13.229 4.97056 12.9948 4.71875 12.6836C5.8007 12.9049 6.6341 12.4251 7.48536 11.9453C8.7322 11.2427 10.0318 10.6706 11.4883 10.5409C13.017 10.4048 14.2102 10.9874 15.1232 12.1844C15.4814 12.6544 15.8079 13.148 16.1572 13.6245C16.3692 13.913 16.5975 14.191 16.9394 14.3385C17.3968 14.5354 17.6794 14.3636 17.7144 13.8676C17.7387 13.5191 17.6875 13.178 17.6096 12.8392C17.5958 12.7776 17.5917 12.7128 17.5722 12.5685Z" fill="#E0E6EE"/>
<path d="M29.8637 32.9958C27.92 33.1223 26.0079 32.8483 24.1088 32.4982C22.4761 32.1968 20.845 32.0007 19.1856 32.2073C18.1012 32.3426 17.0338 32.5769 15.96 32.7762C15.7407 32.8167 15.5198 32.8475 15.3004 32.8824C14.9471 32.9926 14.9049 32.7106 14.8139 32.5331C14.8626 32.9334 14.8626 32.9334 14.3444 32.9991C13.7644 32.9926 13.182 33.012 12.6118 32.8743C12.438 32.8321 12.269 32.7738 12.1342 32.6474C11.9839 32.5072 11.9482 32.3402 12.0497 32.1644C12.4307 31.5039 12.9124 30.9739 13.7368 30.8977C14.056 30.8685 14.3525 31.0233 14.6466 31.0322C14.9122 31.0395 15.1128 30.6919 15.4288 30.6594C16.0778 30.593 16.6626 30.7891 17.219 31.089C17.3815 31.1765 17.4847 31.2032 17.6495 31.0638C18.1613 30.6335 18.7567 30.6578 19.361 30.8256C19.6949 30.9188 20.0108 31.059 20.3049 31.2429C20.4308 31.3215 20.5209 31.341 20.6631 31.2543C21.4827 30.7534 22.2901 30.811 23.0788 31.3377C23.1584 31.3912 23.2185 31.4974 23.3525 31.3726C24.1161 30.6619 25.0729 30.8507 25.8462 31.4504C26.0282 31.5914 26.107 31.5857 26.2613 31.4236C26.5846 31.0865 26.9899 31.1611 27.3879 31.2648C27.431 31.2762 27.4765 31.2875 27.5122 31.3118C27.8639 31.5436 28.2026 31.5768 28.6104 31.3937C29.0474 31.1967 29.4552 31.4123 29.8215 31.6749C29.9775 31.2324 30.1813 31.0938 30.6492 31.1505C30.9725 31.1894 31.295 31.1943 31.6191 31.1975C31.9675 31.234 32.0837 31.3831 32.0959 31.8086C31.8855 32.3224 31.4566 32.5744 30.9619 32.7438C30.8052 32.7973 30.6443 32.8378 30.4859 32.884C30.3373 32.948 30.2658 32.8313 30.1659 32.73C30.066 32.8248 30.0441 33.012 29.8637 32.9958Z" fill="#F5F8FA"/>
<path d="M14.5644 27.0495C15.4717 26.8161 16.2953 27.0884 17.1027 27.4644C17.1921 27.5065 17.2831 27.5454 17.3732 27.5859C17.5235 27.6297 17.5064 27.7626 17.5259 27.8801C17.6437 27.9158 17.7379 27.7675 17.8581 27.8372C19.6135 28.791 21.4785 29.2659 23.484 29.1111C24.3767 29.0422 25.2466 28.8437 26.0954 28.5649C26.3229 28.4904 26.4967 28.4531 26.6388 28.8097C26.6421 28.4652 26.7477 28.3186 27.0011 28.248C27.4292 28.1289 27.8418 27.9571 28.2675 27.8266C28.8507 27.6475 29.6264 28.1792 29.6597 28.7797C29.6735 29.0285 29.5614 29.2457 29.3559 29.3818C28.7256 29.8016 28.0213 29.9766 27.2667 29.9726C27.0263 29.971 26.8192 29.6833 26.6632 29.7505C26.4821 29.8283 26.3261 30.0317 26.1141 30.1006C25.4732 30.3097 24.8128 30.4102 24.137 30.3908C24.0493 30.3883 23.9388 30.3875 23.8795 30.3373C23.5701 30.0804 23.2582 30.2384 22.9308 30.2822C22.0186 30.4053 21.1186 30.2805 20.2739 29.9369C19.9993 29.8251 19.7824 29.7432 19.477 29.7813C18.9198 29.8502 18.3618 29.7538 17.8289 29.5739C17.4772 29.4547 17.1791 29.2692 17.2424 28.808C16.1816 29.4823 14.6781 29.0982 14.22 28.0552C14.1428 27.6548 14.1006 27.2658 14.5644 27.0495Z" fill="#F5F8FA"/>
<path d="M11.6875 27.5245C11.7265 25.7772 12.4397 24.1913 14.0463 23.5243C14.6507 23.2731 15.2769 23.2293 15.917 23.2998C16.0949 23.3193 16.2167 23.3809 16.2882 23.5932C16.5214 24.2926 17.1858 24.7375 17.9964 24.7594C19.0012 24.7861 20.002 24.838 20.9937 25.0252C21.2967 25.0819 21.4137 25.1929 21.3446 25.5001C21.3008 25.6946 21.2902 25.8972 21.274 26.0965C21.2204 26.7805 20.8207 27.065 20.1555 26.8551C19.5105 26.6517 18.8908 26.3737 18.2312 26.2076C16.4612 25.7635 14.7246 25.7375 13.0489 26.5771C12.5704 26.8186 12.1464 27.1436 11.6875 27.5245Z" fill="#E0E6EE"/>
<path d="M11.1602 33.1315C11.7856 33.2903 12.3623 33.4468 12.9504 33.557C14.0218 33.7588 15.0802 33.698 16.1467 33.514C18.1725 33.1639 20.2048 32.8616 22.2721 32.9386C23.9446 33.001 25.5594 33.3819 27.1612 33.8301C27.8605 34.0254 28.568 34.1631 29.3015 34.1631C30.4103 34.1631 31.2794 33.7028 31.9707 32.8641C32.0397 32.7806 32.1063 32.6947 32.2225 32.5488C32.242 32.9873 32.1063 33.3033 31.9195 33.5975C31.4524 34.3325 30.7222 34.6656 29.9172 34.882C28.7086 35.2061 27.5511 34.9387 26.4017 34.5813C25.0923 34.1745 23.7805 33.7871 22.3956 33.715C21.3152 33.6583 20.2585 33.8009 19.2009 33.9808C17.8273 34.2142 16.4651 34.5222 15.0761 34.6607C13.6124 34.8074 12.2925 34.5319 11.3023 33.3317C11.2609 33.2814 11.2268 33.2255 11.1602 33.1315Z" fill="#F5F8FA"/>
<path d="M11.1523 35.8535C12.0004 36.3916 12.8955 36.83 13.8491 37.1437C14.7637 37.4451 15.7051 37.6186 16.6653 37.6939C16.7619 37.7012 16.9081 37.6356 16.9154 37.8228C16.9496 38.7175 17.3963 39.3763 18.1566 39.899C15.3014 39.2977 12.3797 37.5837 11.1523 35.8535Z" fill="#8FA0BD"/>
<path d="M30.3293 35.5716C29.2863 36.6503 28.0963 37.4761 26.6212 37.8335C26.5668 37.8464 26.5124 37.8554 26.458 37.8675C26.0299 37.9648 26.0201 37.9518 26.1225 37.5385C26.2784 36.9072 26.1615 36.3253 25.7813 35.7986C25.6782 35.6551 25.562 35.5214 25.3906 35.3066C26.2468 35.6421 27.0501 35.8366 27.8827 35.8836C28.7128 35.9307 29.5275 35.8456 30.3293 35.5716Z" fill="#8FA0BD"/>
<path d="M27.5477 18.7127C27.8678 19.0393 28.1521 19.2735 28.3795 19.579C28.2406 19.6017 28.1651 19.5037 28.0757 19.4526C27.2951 19.002 26.4731 18.673 25.565 18.5976C25.4886 18.5912 25.4123 18.5985 25.366 18.5085C25.2336 18.2524 25.0581 18.0166 24.9923 17.7289C24.8997 17.3277 25.0386 17.1462 25.4472 17.19C26.6908 17.3237 27.7849 17.8221 28.7605 18.5895C29.2405 18.9672 29.671 19.3935 30.013 19.9081C29.2527 19.4453 28.4737 19.0304 27.5477 18.7127Z" fill="#8FA0BD"/>
<path d="M31.8611 17.5824C30.9725 17.4884 30.109 17.302 29.3707 16.7533C29.0839 16.5402 28.9036 16.2565 28.8337 15.8975C28.7874 15.6569 28.7931 15.5661 29.0994 15.6115C30.0172 15.7476 30.9416 15.7954 31.8595 15.5815C32.2274 15.4956 32.5678 15.353 32.8805 15.1406C32.2786 16.1958 31.3794 16.7412 30.1309 16.7112C30.6752 17.0994 31.2925 17.2825 31.8611 17.5824Z" fill="#F4F7F9"/>
<path d="M10.4062 15.0879C11.671 15.9688 12.3476 16.0547 14.4839 15.5709C14.5253 16.0385 14.3271 16.3951 13.9835 16.6779C13.3694 17.1836 12.6221 17.3659 11.8659 17.5207C11.7035 17.5539 11.5378 17.571 11.3655 17.5742C11.9544 17.2606 12.5953 17.0596 13.172 16.673C11.874 16.7792 10.948 16.2622 10.4062 15.0879Z" fill="#F4F7F9"/>
<path d="M33.9727 26.5108C35.823 25.121 37.182 23.3438 38.1404 21.2497C38.1705 21.1832 38.1486 21.069 38.2777 21.0787C37.796 22.6906 36.879 24.0569 35.8409 25.3528C35.3462 25.9695 34.8012 26.5408 34.218 27.1178C34.0799 26.9258 34.0352 26.7142 33.9727 26.5108Z" fill="#DFE5ED"/>
<path d="M6.14662 16.4454C5.84608 17.4422 5.87695 18.4674 5.8932 19.4901C5.89401 19.5274 5.933 19.5638 5.95412 19.6011C6.05321 20.1619 6.17587 20.7154 6.41061 21.239C6.44473 21.3143 6.50078 21.3986 6.42442 21.4845C5.91756 20.8248 5.68606 20.055 5.52198 19.2567C5.31729 18.2599 5.40827 16.8612 5.75673 15.8887C5.94193 16.0508 6.06865 16.229 6.14662 16.4454Z" fill="#E0E6EE"/>
<path d="M33.375 24.699C34.8688 23.622 36.0303 22.2678 36.8166 20.5684C36.8166 20.8398 36.7541 21.036 36.5331 21.4687C36.4681 21.5968 36.391 21.7191 36.3967 21.8707C36.1335 22.2913 35.8801 22.7184 35.6055 23.1309C35.0459 23.9737 34.3546 24.6941 33.5326 25.3238C33.4473 25.105 33.375 24.9121 33.375 24.699Z" fill="#DFE5ED"/>
<path d="M24.0983 10.2879C23.6816 10.4362 23.2828 10.6153 22.9766 11.0562C23.0204 10.5716 23.1821 10.2385 23.4883 9.99052C23.6386 9.86977 23.6767 9.69958 23.7539 9.54561C23.7775 9.71822 23.8701 9.66149 23.9651 9.61044C24.2632 9.45079 24.5873 9.36489 24.9138 9.29519C25.0357 9.26926 25.2022 9.2101 25.2834 9.34706C25.3703 9.49293 25.2184 9.58207 25.1372 9.68418C24.9804 9.88111 24.7457 9.92569 24.5337 10.0229C24.3818 10.0926 24.1657 10.0764 24.0983 10.2879Z" fill="#637298"/>
<path d="M14.5624 27.0486C14.2659 27.3217 14.1822 27.6677 14.2164 28.0543C14.1782 27.6418 13.9386 27.7042 13.6567 27.8023C12.6576 28.1483 12.0411 28.8696 11.6406 29.8258C11.7064 28.5713 13.0719 27.2804 14.5624 27.0486Z" fill="#8E9FBC"/>
<path d="M32.0979 31.8083C32.0167 31.5441 31.9103 31.2994 31.6211 31.1973C32.1913 30.6705 32.2604 30.0441 31.9411 29.2969C32.5357 29.9736 32.5836 31.0409 32.0979 31.8083Z" fill="#8E9EBC"/>
<path d="M6.42343 21.4841C6.28697 20.9865 6.05547 20.5173 5.98968 19.997C5.97262 19.8649 5.96287 19.7337 5.95312 19.6016C6.0441 19.9249 6.13995 20.2475 6.22605 20.5724C6.34302 21.0141 6.57695 21.4063 6.74509 21.8261C6.65737 21.8869 6.57695 21.8634 6.58426 21.7621C6.59482 21.6195 6.46648 21.5806 6.42343 21.4841Z" fill="#434E71"/>
<path d="M14.3438 32.9989C14.6597 32.9624 14.8993 32.8644 14.728 32.4219C14.9781 32.5686 14.996 32.9081 15.2998 32.883C15.3185 32.977 15.4225 33.105 15.1893 33.0718C14.9099 33.0321 14.6256 33.0216 14.3438 32.9989Z" fill="#4F5F86"/>
<path d="M29.8672 32.9953C30.0524 32.9118 30.0296 32.7035 30.1133 32.5625C30.3164 32.5901 30.2465 32.915 30.4894 32.8826C30.2985 33.0123 30.1304 33.2684 29.8672 32.9953Z" fill="#51628A"/>
<path d="M17.856 27.8366C17.722 27.8998 17.588 27.963 17.4483 28.0286C17.4028 27.873 17.5116 27.7069 17.3711 27.5853C17.6578 27.4273 17.7634 27.6194 17.856 27.8366Z" fill="#52638A"/>
<path d="M32.5703 20.0684C32.6084 20.1081 32.6474 20.1486 32.6856 20.1883C32.6856 20.2823 32.6856 20.3755 32.6856 20.4979C32.5532 20.3552 32.5443 20.2159 32.5703 20.0684Z" fill="#747C9E"/>
<path d="M37.3978 13.5605C37.5871 13.58 37.5668 13.7502 37.596 13.8644C37.8048 14.6724 37.7934 15.4934 37.7024 16.324C37.6057 15.4391 37.2792 14.6424 36.8008 13.9025C36.9998 13.7891 37.1988 13.6748 37.3978 13.5605Z" fill="#00030B"/>
<path d="M97.345 17.9541C97.2386 17.9047 97.1143 17.8018 96.9746 17.6446C96.8333 17.4882 96.6798 17.2685 96.5149 16.9857L96.4458 16.869L95.4199 16.9509L96.0779 16.2936L95.5401 15.3349C95.1827 14.7271 94.8123 14.3057 94.4322 14.065C94.7238 13.9767 94.9886 13.8511 95.2266 13.6849C95.4654 13.5188 95.6538 13.3065 95.796 13.0488C95.9357 12.7927 96.0048 12.4969 96.0048 12.1687C96.0048 11.7602 95.8951 11.3972 95.6733 11.0795C95.4508 10.7626 95.1299 10.5179 94.7084 10.3461C94.2884 10.1727 93.8002 10.0859 93.2406 10.0859H89.0078V10.248C89.362 10.248 89.6178 10.3282 89.777 10.4871C89.9354 10.6475 90.015 10.9223 90.015 11.3121V17.0076C90.015 17.3245 89.9549 17.5781 89.8323 17.7694C89.7112 17.9606 89.4351 18.0579 89.0078 18.0579V18.2167H92.8409V18.0676C92.6208 18.0595 92.4421 18.0352 92.3097 17.993C92.1773 17.9509 92.0628 17.8536 91.971 17.7029C91.88 17.5481 91.8329 17.3188 91.8329 17.0076V14.4078H92.092C92.4218 14.4078 92.6923 14.4824 92.9059 14.6291C93.1179 14.7757 93.3242 15.0148 93.5233 15.3471C93.7223 15.6769 94.0399 16.2677 94.4752 17.1178C94.6125 17.3909 94.8083 17.7556 95.0625 18.2159H97.6951V18.0571C97.5684 18.0368 97.453 18.0036 97.345 17.9541ZM93.6386 13.501C93.3169 13.8049 92.8385 13.9556 92.2033 13.9556H91.8313V10.5406H92.274C92.6769 10.5406 93.0164 10.6054 93.2909 10.7334C93.5655 10.8615 93.7726 11.0503 93.9123 11.2926C94.0504 11.539 94.1195 11.8372 94.1195 12.1906C94.1203 12.7619 93.9594 13.1971 93.6386 13.501Z" fill="white"/>
<path d="M105.488 29.077C105.381 29.0292 105.258 28.9247 105.118 28.7699C105.01 28.6491 104.892 28.4798 104.769 28.2869L103.738 28.5292L104.353 27.8282C104.366 27.8323 104.387 27.6694 104.4 27.6734L103.682 26.4586C103.324 25.8533 102.953 25.4278 102.573 25.1912C102.864 25.1036 103.131 24.9748 103.369 24.8095C103.608 24.6449 103.796 24.4334 103.937 24.1749C104.077 23.9172 104.148 23.623 104.148 23.2924C104.148 22.8839 104.036 22.5209 103.815 22.2056C103.593 21.8871 103.271 21.644 102.851 21.4706C102.43 21.2988 101.941 21.2129 101.382 21.2129H97.1484V21.3717C97.5042 21.3717 97.7601 21.452 97.9193 21.6124C98.0785 21.7713 98.1581 22.0476 98.1581 22.4374V28.1329C98.1581 28.4498 98.0964 28.7034 97.9753 28.8931C97.8535 29.0843 97.5781 29.1816 97.1484 29.1816V29.3404H100.984V29.1937C100.764 29.1856 100.584 29.1597 100.453 29.1192C100.32 29.0754 100.206 28.9782 100.115 28.825C100.021 28.6718 99.9743 28.4417 99.9743 28.1337V25.534H100.235C100.564 25.534 100.834 25.6085 101.047 25.7536C101.259 25.9027 101.464 26.141 101.665 26.4716C101.865 26.8039 102.181 27.3922 102.617 28.2423C102.754 28.5154 102.951 28.8825 103.204 29.3404H105.837V29.1816C105.712 29.1605 105.595 29.1281 105.488 29.077ZM101.781 24.6247C101.459 24.9262 100.981 25.0793 100.347 25.0793H99.9743V21.6643H100.418C100.82 21.6643 101.16 21.7267 101.436 21.8572C101.709 21.9852 101.916 22.17 102.055 22.4172C102.193 22.6619 102.264 22.9593 102.264 23.3126C102.264 23.884 102.103 24.3216 101.781 24.6247Z" fill="white"/>
<path d="M54.3176 12.8794H54.1243C54.065 12.4864 53.9513 12.1371 53.784 11.8308C53.6158 11.5252 53.412 11.2732 53.1748 11.0722C52.9368 10.8721 52.6687 10.7189 52.3706 10.616C52.0733 10.513 51.759 10.4612 51.4259 10.4612C50.9833 10.4612 50.5926 10.5544 50.2546 10.7416C49.9159 10.9304 49.6568 11.1654 49.4757 11.445C49.2572 11.7983 49.1045 12.1873 49.0159 12.6177C48.9274 13.0456 48.8835 13.5042 48.8835 13.9889C48.8835 14.873 49.0379 15.5781 49.3481 16.1089C49.6584 16.6381 50.0321 17.0068 50.4707 17.2143C50.9085 17.4225 51.339 17.5255 51.7647 17.5255C52.7914 17.5255 53.6808 17.0246 54.4346 16.0246V16.7702C54.1869 17.0587 53.9213 17.3123 53.637 17.5319C53.3527 17.7516 52.9985 17.9363 52.5737 18.0838C52.1489 18.2305 51.6518 18.3051 51.0832 18.3051C50.4106 18.3051 49.8111 18.19 49.2848 17.9655C48.7576 17.7386 48.3222 17.4339 47.9746 17.0522C47.6269 16.6681 47.3646 16.2313 47.1875 15.7385C47.0104 15.2442 46.9219 14.7377 46.9219 14.2142C46.9219 13.7668 46.9787 13.347 47.0933 12.9613C47.2078 12.5755 47.3629 12.2335 47.5587 11.9321C47.7545 11.6338 47.9868 11.3551 48.2564 11.0949C48.7186 10.6768 49.1979 10.3907 49.6974 10.2391C50.1962 10.0843 50.7339 10.0082 51.3098 10.0082C51.8784 10.0082 52.499 10.1022 53.1715 10.291C53.4079 10.3461 53.5817 10.3737 53.693 10.3737C53.8961 10.3737 54.0512 10.2416 54.1576 9.97656H54.3176V12.8794Z" fill="white"/>
<path d="M55.0703 14.1274C55.0703 13.5772 55.1654 13.048 55.3562 12.5439C55.5463 12.039 55.8257 11.5965 56.1953 11.2165C56.5649 10.8348 57.0133 10.539 57.5388 10.3283C58.0652 10.1167 58.6606 10.0098 59.325 10.0098C59.9976 10.0098 60.5962 10.1192 61.1234 10.3347C61.6497 10.5487 62.0965 10.8461 62.4645 11.231C62.8324 11.6144 63.1094 12.056 63.2987 12.5585C63.4871 13.0609 63.5813 13.5958 63.5813 14.1631C63.5813 14.7247 63.4895 15.2555 63.3076 15.7523C63.1248 16.2466 62.856 16.6883 62.501 17.07C62.146 17.4517 61.7001 17.754 61.1632 17.9752C60.6263 18.1948 60.0171 18.3075 59.338 18.3075C58.6061 18.3075 57.9677 18.1811 57.4235 17.9331C56.8784 17.6867 56.4333 17.3561 56.0881 16.9492C55.7421 16.5408 55.487 16.0902 55.3205 15.5951C55.1532 15.1031 55.0703 14.6145 55.0703 14.1274ZM57.01 14.0221C57.01 14.574 57.0515 15.1185 57.1343 15.6526C57.2172 16.1891 57.4324 16.6875 57.7792 17.1535C58.1261 17.6194 58.6492 17.8528 59.3478 17.8528C60.3265 17.8528 60.9536 17.459 61.229 16.6745C61.5035 15.8876 61.6416 15.0877 61.6416 14.2701C61.6416 13.6339 61.5872 13.0382 61.4751 12.4823C61.3646 11.9264 61.138 11.4507 60.796 11.0552C60.4549 10.6597 59.9716 10.4612 59.3478 10.4612C58.6459 10.4612 58.122 10.6881 57.7768 11.1387C57.4316 11.5892 57.2172 12.0674 57.1343 12.5747C57.0515 13.0844 57.01 13.5674 57.01 14.0221Z" fill="white"/>
<path d="M67.1076 10.0879L72.0892 15.3247V11.6042C72.0892 11.1171 71.9893 10.7808 71.7895 10.6033C71.5905 10.4258 71.2851 10.3059 70.8757 10.2484V10.0879H73.6911V10.2484C73.3808 10.2808 73.1493 10.365 72.9982 10.4988C72.8463 10.6349 72.7488 10.7913 72.705 10.9729C72.6611 11.1519 72.6383 11.3627 72.6383 11.605V18.307H72.4328L66.4594 12.0466V16.6222C66.4594 17.0039 66.5422 17.3321 66.7063 17.6019C66.8704 17.871 67.1742 18.0234 67.6169 18.0582V18.217H64.7032V18.0582C65.5196 17.9917 65.9241 17.5922 65.9168 16.8588V11.4785C65.894 11.4656 65.864 11.4388 65.8282 11.4024C65.7941 11.3683 65.7389 11.3148 65.6617 11.2419C65.5837 11.1673 65.5139 11.1025 65.4513 11.0434C64.9558 10.5693 64.5221 10.3018 64.1484 10.2484V10.0879H67.1076Z" fill="white"/>
<path d="M82.0598 10.0879V10.2484C81.7593 10.2921 81.5026 10.4072 81.2865 10.592C81.0689 10.7792 80.8479 11.1933 80.618 11.8432L78.3014 18.3062H78.0862L75.3049 11.3238C75.1709 10.9729 75.0085 10.7111 74.8143 10.5409C74.6202 10.3707 74.3391 10.2751 73.9688 10.2484V10.0879H77.6987V10.2484C77.5135 10.2597 77.3641 10.2889 77.2495 10.3399C77.135 10.3877 77.0773 10.5117 77.0773 10.7127C77.0773 10.8521 77.1261 11.0409 77.2211 11.28L78.8107 15.2907L80.0803 11.7387C80.1867 11.4559 80.2411 11.1998 80.2411 10.9729C80.2411 10.8432 80.1908 10.6997 80.0925 10.5409C79.9926 10.3821 79.7668 10.2848 79.4159 10.2484V10.0879H82.0598Z" fill="white"/>
<path d="M88.2617 10.0879L88.3283 11.9081H88.1667C88.0928 11.6042 88.0099 11.3505 87.9206 11.1536C87.8304 10.955 87.7012 10.8019 87.5347 10.6973C87.369 10.592 87.1416 10.5409 86.854 10.5409H85.2067V13.9559H86.5218C86.9133 13.9559 87.1976 13.87 87.378 13.6982C87.5559 13.524 87.6598 13.2687 87.6907 12.9308H87.8523V15.3142H87.6907C87.6346 14.9527 87.5006 14.7145 87.2862 14.5921C87.0734 14.4697 86.8167 14.409 86.5226 14.409H85.2076V16.7486C85.2076 17.4261 85.5585 17.7665 86.2611 17.7665H86.7606C87.0961 17.7665 87.3706 17.7203 87.5826 17.6327C87.7963 17.5452 87.9709 17.392 88.109 17.1781C88.2479 16.9617 88.3722 16.6562 88.4843 16.2632H88.6443L88.5225 18.217H82.3711V18.0582C82.8008 18.0582 83.077 17.961 83.2021 17.7665C83.328 17.5736 83.3913 17.3215 83.3913 17.0079V11.3124C83.3913 11.0142 83.3336 10.7646 83.2191 10.5563C83.1046 10.3521 82.8406 10.2484 82.4263 10.2484H82.3711V10.0879H88.2617Z" fill="white"/>
<path d="M98.3781 10.0872H104.08C104.343 10.0872 104.561 10.0547 104.733 9.98828H104.895L104.939 11.8984H104.784C104.702 11.3384 104.566 10.9835 104.372 10.8303C104.178 10.6755 103.941 10.6009 103.66 10.6009H102.136V17.0072C102.136 17.2227 102.161 17.4027 102.207 17.5518C102.256 17.7025 102.354 17.8208 102.502 17.9165C102.649 18.0105 102.864 18.0575 103.149 18.0575V18.2163H99.3098V18.0575C99.7346 18.0575 100.011 17.9602 100.136 17.769C100.261 17.5777 100.323 17.324 100.323 17.0072V10.6009H98.7989C98.5414 10.6009 98.331 10.6828 98.1685 10.8457C98.0053 11.0102 97.8453 11.3595 97.6925 11.8984H97.5195L97.5634 9.98828H97.725C97.8997 10.0547 98.1174 10.0872 98.3781 10.0872Z" fill="white"/>
<path d="M57.0525 21.2129V21.3717C56.8388 21.3871 56.6618 21.4114 56.5237 21.452C56.3848 21.49 56.2694 21.5784 56.1768 21.7178C56.085 21.8555 56.0517 22.0598 56.0769 22.3304L56.5261 27.7909C56.5594 28.1726 56.6138 28.4538 56.6902 28.637C56.7657 28.8201 56.8608 28.9409 56.9729 29.0041C57.0849 29.0673 57.2636 29.1265 57.5073 29.1816V29.3404H53.7611V29.1816C54.0755 29.1719 54.3216 29.0924 54.5011 28.9336C54.6806 28.7748 54.7513 28.4619 54.7147 27.996L54.3159 22.8199H54.2948L51.6289 29.3404H51.4348L48.686 23.0339H48.6641L48.3042 27.564C48.2669 28.0114 48.2986 28.3509 48.3985 28.59C48.4976 28.825 48.63 28.9798 48.794 29.0519C48.9589 29.1224 49.1498 29.167 49.3683 29.1816V29.3404H46.5977V29.1816C46.9486 29.1589 47.2134 29.0195 47.3929 28.7618C47.5724 28.5041 47.6934 28.0762 47.756 27.4765L48.3051 22.3312C47.9615 21.7826 47.492 21.4641 46.8974 21.3725V21.2137H49.8459L52.2056 26.5599L54.3947 21.2137H57.0525V21.2129Z" fill="white"/>
<path d="M58.0156 25.2524C58.0156 24.6989 58.1115 24.1713 58.3007 23.6673C58.4908 23.1632 58.771 22.7215 59.1406 22.3398C59.5102 21.9598 59.9578 21.664 60.4841 21.4516C61.0113 21.2401 61.6067 21.1348 62.2711 21.1348C62.9437 21.1348 63.5432 21.2442 64.0695 21.4581C64.5959 21.6737 65.0434 21.9719 65.4114 22.3536C65.7785 22.7377 66.0563 23.1802 66.2448 23.6827C66.4332 24.1851 66.5275 24.7176 66.5275 25.2848C66.5275 25.8481 66.4357 26.3773 66.2537 26.8732C66.0702 27.37 65.8021 27.8092 65.4471 28.1934C65.093 28.5751 64.647 28.8774 64.1093 29.097C63.5716 29.3182 62.9632 29.4292 62.2833 29.4292C61.5523 29.4292 60.9146 29.3052 60.3696 29.0573C59.8246 28.8068 59.3794 28.4803 59.0342 28.0694C58.689 27.6626 58.4331 27.212 58.2666 26.7184C58.0985 26.2265 58.0156 25.7379 58.0156 25.2524ZM59.9545 25.1455C59.9545 25.6973 59.996 26.2419 60.0796 26.7768C60.1625 27.3117 60.3785 27.8141 60.7254 28.2801C61.0722 28.7461 61.5953 28.977 62.2931 28.977C63.2719 28.977 63.8989 28.5832 64.1735 27.7987C64.4488 27.0134 64.5869 26.2119 64.5869 25.3959C64.5869 24.7581 64.5309 24.1624 64.4204 23.6065C64.3091 23.0514 64.0833 22.5773 63.7414 22.1802C63.3994 21.7847 62.9161 21.5886 62.2923 21.5886C61.5905 21.5886 61.0673 21.8139 60.7213 22.2645C60.3761 22.7151 60.1617 23.1948 60.0788 23.7029C59.9968 24.2094 59.9545 24.6908 59.9545 25.1455Z" fill="white"/>
<path d="M70.0591 21.2129L75.0416 26.4481V22.73C75.0416 22.2405 74.9416 21.9066 74.7418 21.7275C74.5428 21.55 74.2382 21.4317 73.828 21.3725V21.2137H76.6434V21.3725C76.3331 21.4066 76.1016 21.4909 75.9505 21.623C75.7994 21.7583 75.7011 21.9171 75.6573 22.0962C75.6134 22.2753 75.5907 22.4877 75.5907 22.73V29.4296H75.386L69.4125 23.1708V27.7447C69.4125 28.1289 69.4945 28.453 69.6586 28.7269C69.8235 28.996 70.1273 29.1467 70.57 29.1816V29.3404H67.6555V29.1816C68.4719 29.1151 68.8756 28.7156 68.8691 27.9838V22.6035C68.8471 22.5881 68.8171 22.5614 68.7805 22.5257C68.7472 22.4933 68.692 22.4398 68.6148 22.3653C68.5369 22.2907 68.467 22.2259 68.4036 22.1667C67.909 21.691 67.4744 21.4276 67.1016 21.3717V21.2129H70.0591Z" fill="white"/>
<path d="M81.7285 23.2257H81.5124C81.3654 22.7175 81.1306 22.3164 80.8098 22.0263C80.4865 21.7321 80.0991 21.587 79.6409 21.587C79.4143 21.587 79.2096 21.6308 79.0228 21.7224C78.8343 21.8123 78.6873 21.9404 78.5785 22.1081C78.468 22.2759 78.4144 22.4671 78.4144 22.6851C78.4144 22.8091 78.4355 22.9339 78.4786 23.0555C78.52 23.1762 78.6232 23.3245 78.7864 23.5004C78.9481 23.6779 79.1958 23.8732 79.528 24.0863C79.9009 24.3173 80.1283 24.4648 80.2095 24.5272C80.675 24.8181 81.0559 25.0888 81.3508 25.3392C81.6464 25.5896 81.8714 25.8587 82.0266 26.1488C82.1817 26.4405 82.2597 26.7688 82.2597 27.1359C82.2597 27.4754 82.1947 27.7834 82.0631 28.0622C81.9324 28.3385 81.7447 28.5792 81.5035 28.7842C81.2614 28.9884 80.9731 29.1473 80.6392 29.2599C80.3046 29.3701 79.9423 29.4277 79.55 29.4277C79.1487 29.4277 78.6824 29.3515 78.1528 29.2008C78.0944 29.187 78.0196 29.17 77.9295 29.1513C77.8385 29.1319 77.7581 29.1246 77.6874 29.1246C77.5152 29.1246 77.3893 29.2145 77.3105 29.3936H77.1172L77.1676 27.1002H77.3836C77.4543 27.5338 77.6054 27.8952 77.8352 28.187C78.0659 28.4755 78.3275 28.6878 78.6199 28.8191C78.9115 28.9487 79.1974 29.0136 79.4785 29.0136C79.8895 29.0136 80.229 28.8993 80.4954 28.6716C80.7643 28.4447 80.8975 28.1659 80.8975 27.8369C80.8975 27.6197 80.8407 27.4244 80.7286 27.2615C80.6165 27.097 80.4475 26.9357 80.2209 26.7744C79.9959 26.614 79.5711 26.3368 78.9464 25.9397C78.6183 25.7258 78.338 25.5191 78.1082 25.3206C77.8759 25.122 77.6972 24.9332 77.5672 24.7492C77.438 24.5677 77.3463 24.3845 77.2926 24.203C77.239 24.0215 77.2122 23.827 77.2122 23.6203C77.2122 23.2232 77.3146 22.8302 77.5193 22.4461C77.7248 22.0587 78.0156 21.7434 78.3917 21.5011C78.7694 21.2548 79.1999 21.1324 79.684 21.1324C79.9082 21.1324 80.1251 21.1535 80.3322 21.1997C80.3874 21.2053 80.4605 21.2232 80.5523 21.245C80.6457 21.2702 80.7229 21.2888 80.7854 21.3042C80.9495 21.3334 81.0705 21.3463 81.151 21.3463C81.2769 21.3463 81.3654 21.3269 81.4149 21.2872C81.4653 21.2475 81.5108 21.1883 81.5563 21.1113H81.7277V23.2257H81.7285Z" fill="white"/>
<path d="M83.6078 21.2122H89.3091C89.5707 21.2122 89.7892 21.1781 89.9622 21.1133H90.123L90.1677 23.0218H90.0126C89.9305 22.4634 89.7941 22.1068 89.6007 21.9537C89.4058 21.8013 89.1694 21.7251 88.8884 21.7251H87.3629V28.133C87.3629 28.3445 87.3873 28.5268 87.4376 28.6776C87.4839 28.8243 87.5814 28.9466 87.7293 29.0406C87.8763 29.1338 88.094 29.1817 88.3791 29.1817V29.3405H84.5386V29.1817C84.9635 29.1817 85.238 29.0844 85.3631 28.8931C85.4898 28.7043 85.5532 28.4499 85.5532 28.133V21.7251H84.0293C83.7702 21.7251 83.5615 21.807 83.3982 21.9691C83.2349 22.1336 83.0757 22.4845 82.9206 23.0218H82.75L82.7939 21.1133H82.9539C83.1269 21.1781 83.3454 21.2122 83.6078 21.2122Z" fill="white"/>
<path d="M96.3993 21.2137L96.4667 23.0339H96.3058C96.2327 22.7283 96.1507 22.4763 96.0589 22.2778C95.9687 22.0792 95.8404 21.9285 95.6747 21.8231C95.5074 21.7178 95.2799 21.6667 94.9932 21.6667H93.3475V25.0818H94.6602C95.0517 25.0818 95.3368 24.9958 95.5163 24.8216C95.6942 24.6498 95.799 24.3937 95.8307 24.0534H95.9915V26.4367H95.8307C95.7746 26.0777 95.639 25.8346 95.4253 25.7147C95.2109 25.5939 94.9558 25.5331 94.6602 25.5331H93.3475V27.8728C93.3475 28.5503 93.6976 28.8866 94.3986 28.8866H94.8982C95.2344 28.8866 95.509 28.8445 95.7194 28.7569C95.933 28.667 96.1076 28.5146 96.2465 28.3007C96.3846 28.0867 96.5089 27.7812 96.6202 27.3882H96.781L96.6584 29.3404H90.5086V29.1816C90.9367 29.1816 91.2145 29.0843 91.3388 28.8915C91.4647 28.6986 91.5288 28.4465 91.5288 28.1329V22.4374C91.5288 22.1392 91.4704 21.8871 91.3558 21.6813C91.2413 21.4747 90.9773 21.3717 90.5631 21.3717H90.5078V21.2129H96.3993V21.2137Z" fill="white"/>
<path d="M47.4498 13.209C47.4498 13.209 46.9828 16.637 49.5276 17.8461C49.5276 17.8461 47.0461 17.2748 47.1517 13.6904L47.4498 13.209Z" fill="#8FA0BD"/>
<path d="M55.5654 12.9238C55.5654 12.9238 55.0984 16.5147 57.644 17.7846C57.644 17.7846 55.1625 17.1849 55.269 13.4263L55.5654 12.9238Z" fill="#8FA0BD"/>
<path d="M61.9087 13.7168C61.9087 13.7168 62.2214 16.7842 60.5156 17.8669C60.5156 17.8669 62.1784 17.3571 62.1077 14.1463L61.9087 13.7168Z" fill="#8FA0BD"/>
<path d="M58.5342 24.0781C58.5342 24.0781 58.0672 27.6706 60.6128 28.9381C60.6128 28.9381 58.1305 28.3384 58.2378 24.5814L58.5342 24.0781Z" fill="#8FA0BD"/>
<path d="M64.8774 24.8711C64.8774 24.8711 65.1902 27.9377 63.4844 29.0228C63.4844 29.0228 65.1479 28.5122 65.0764 25.2998L64.8774 24.8711Z" fill="#8FA0BD"/>
<path d="M66.9961 12.1738L72.2783 17.7526V17.4982L67.282 12.2054L66.9961 12.1738Z" fill="#8FA0BD"/>
<path d="M69.8828 23.2461L75.1659 28.8225V28.568L70.1695 23.2761L69.8828 23.2461Z" fill="#8FA0BD"/>
<path d="M78.0683 17.4972L75.5234 11.1582L75.7777 11.1906L78.1966 17.1803L78.0683 17.4972Z" fill="#8FA0BD"/>
<path d="M51.4789 28.7246L48.6562 22.5039L48.9121 22.5234L51.5918 28.4012L51.4789 28.7246Z" fill="#8FA0BD"/>
<path d="M83.6371 11.3826L83.6695 17.2134C83.6695 17.2134 83.6062 17.6891 83.3828 17.8147C83.3828 17.8147 83.8604 17.5611 83.8604 17.0222C83.8604 16.4832 83.7954 11.7294 83.7954 11.7294L83.6371 11.3826Z" fill="#8FA0BD"/>
<path d="M90.173 11.3826L90.2031 17.2134C90.2031 17.2134 90.1405 17.6891 89.918 17.8147C89.918 17.8147 90.3956 17.5611 90.3956 17.0222C90.3956 16.4832 90.3306 11.7294 90.3306 11.7294L90.173 11.3826Z" fill="#8FA0BD"/>
<path d="M85.7144 23.1406L85.7469 28.4536C85.7469 28.4536 85.6835 28.9269 85.4609 29.0558C85.4609 29.0558 85.9369 28.8013 85.9369 28.2632C85.9369 27.7226 85.8728 23.4883 85.8728 23.4883L85.7144 23.1406Z" fill="#8FA0BD"/>
<path d="M91.7855 23.1406L91.818 28.4536C91.818 28.4536 91.7538 28.9269 91.5312 29.0558C91.5312 29.0558 92.0089 28.8013 92.0089 28.2632C92.0089 27.7226 91.9455 23.4883 91.9455 23.4883L91.7855 23.1406Z" fill="#8FA0BD"/>
<path d="M98.4448 23.127L98.4765 28.4521C98.4765 28.4521 98.4132 28.9254 98.1914 29.0542C98.1914 29.0542 98.6682 28.7998 98.6682 28.2617C98.6682 27.7211 98.6049 23.4754 98.6049 23.4754L98.4448 23.127Z" fill="#8FA0BD"/>
<path d="M100.523 11.3826L100.555 17.2134C100.555 17.2134 100.492 17.6891 100.27 17.8147C100.27 17.8147 100.747 17.5611 100.747 17.0222C100.747 16.4832 100.683 11.7294 100.683 11.7294L100.523 11.3826Z" fill="#8FA0BD"/>
<path d="M77.3683 23.5625C77.3683 23.5625 77.1985 24.4928 78.343 25.2951C79.4899 26.0974 81.4402 26.9832 80.974 28.0416C80.974 28.0416 81.3557 27.1113 80.6775 26.6477C79.8027 26.048 78.2585 24.9993 78.2585 24.9993C78.2585 24.9993 77.3252 24.2384 77.3683 23.5625Z" fill="#8FA0BD"/>
</g>
<defs>
<clipPath id="clip0_6_67">
<rect width="106" height="42" fill="white"/>
</clipPath>
</defs>
</svg>
